<svg width="18" height="19" viewBox="0 0 18 19" fill="none" xmlns="http://www.w3.org/2000/svg">
<g clip-path="url(#clip0_1_3898)">
<path d="M9 0.5C4.0374 0.5 0 4.5374 0 9.5C0 14.4626 4.0374 18.5 9 18.5C10.3194 18.5 11.6649 18.1661 12.9978 17.5064L12.2013 15.8927C11.1177 16.4282 10.0404 16.7 9 16.7C5.0301 16.7 1.8 13.4699 1.8 9.5C1.8 5.5301 5.0301 2.3 9 2.3C12.9699 2.3 16.2 5.5301 16.2 9.5V10.4C16.2 11.0228 15.9183 12.2 14.85 12.2C13.5936 12.2 13.5054 10.5629 13.5 10.4V5.9H11.7V5.9225C10.9253 5.32755 9.97675 5.00345 9 5C6.5187 5 4.5 7.0187 4.5 9.5C4.5 11.9813 6.5187 14 9 14C10.305 14 11.4732 13.4321 12.2958 12.5411C12.7674 13.3421 13.563 14 14.85 14C16.8957 14 18 12.1451 18 10.4V9.5C18 4.5374 13.9626 0.5 9 0.5ZM9 12.2C7.5114 12.2 6.3 10.9886 6.3 9.5C6.3 8.0114 7.5114 6.8 9 6.8C10.4886 6.8 11.7 8.0114 11.7 9.5C11.7 10.9886 10.4886 12.2 9 12.2Z" fill="#434645"/>
</g>
<defs>
<clipPath id="clip0_1_3898">
<rect width="18" height="18" fill="white" transform="translate(0 0.5)"/>
</clipPath>
</defs>
</svg>
