<svg width="18" height="19" viewBox="0 0 18 19" fill="none" xmlns="http://www.w3.org/2000/svg">
<g clip-path="url(#clip0_1_3895)">
<path d="M14.1598 9.7067C14.0768 9.62357 13.9782 9.55761 13.8697 9.51261C13.7612 9.46761 13.6449 9.44445 13.5274 9.44445C13.4099 9.44445 13.2936 9.46761 13.1851 9.51261C13.0766 9.55761 12.978 9.62357 12.895 9.7067L11.4692 11.1324C10.8082 10.9357 9.5747 10.4884 8.79292 9.7067C8.01114 8.92496 7.5639 7.69152 7.36712 7.03052L8.79292 5.60478C8.87606 5.52178 8.94201 5.42321 8.98702 5.3147C9.03202 5.20619 9.05518 5.08988 9.05518 4.9724C9.05518 4.85493 9.03202 4.73862 8.98702 4.63011C8.94201 4.5216 8.87606 4.42303 8.79292 4.34003L5.21499 0.762252C5.13199 0.679117 5.03342 0.613163 4.92491 0.568163C4.81639 0.523163 4.70007 0.5 4.58259 0.5C4.46512 0.5 4.3488 0.523163 4.24028 0.568163C4.13177 0.613163 4.03319 0.679117 3.9502 0.762252L1.52436 3.18799C1.18446 3.52788 0.993038 3.99478 1.00019 4.47152C1.02077 5.74521 1.35799 10.1691 4.84468 13.6557C8.33137 17.1422 12.7555 17.4785 14.0301 17.5H14.0552C14.5274 17.5 14.9738 17.314 15.3119 16.9759L17.7377 14.5501C17.8209 14.4671 17.8868 14.3686 17.9318 14.26C17.9768 14.1515 18 14.0352 18 13.9177C18 13.8003 17.9768 13.684 17.9318 13.5755C17.8868 13.4669 17.8209 13.3684 17.7377 13.2854L14.1598 9.7067ZM14.0462 15.7102C12.9299 15.6914 9.11046 15.3918 6.10947 12.39C3.09865 9.37934 2.80705 5.54664 2.78916 4.45273L4.58259 2.65937L6.89572 4.9724L5.73916 6.12892C5.63402 6.23397 5.55672 6.36357 5.51424 6.50599C5.47176 6.64841 5.46545 6.79918 5.49586 6.94466C5.51733 7.04752 6.04239 9.48667 7.52723 10.9714C9.01207 12.4562 11.4513 12.9813 11.5542 13.0027C11.6996 13.034 11.8505 13.0282 11.9931 12.9858C12.1356 12.9435 12.2652 12.8659 12.37 12.7603L13.5274 11.6038L15.8405 13.9169L14.0462 15.7102Z" fill="#434645"/>
</g>
<defs>
<clipPath id="clip0_1_3895">
<rect width="18" height="18" fill="white" transform="translate(0 0.5)"/>
</clipPath>
</defs>
</svg>
