<svg width="12" height="20" viewBox="0 0 12 20" fill="none" xmlns="http://www.w3.org/2000/svg">
<path d="M6 0.653809C2.68286 0.653809 0 3.57915 0 7.19612C0 12.1028 6 19.3461 6 19.3461C6 19.3461 12 12.1028 12 7.19612C12 3.57915 9.31714 0.653809 6 0.653809ZM1.71429 7.19612C1.71429 4.61658 3.63429 2.52304 6 2.52304C8.36571 2.52304 10.2857 4.61658 10.2857 7.19612C10.2857 9.88781 7.81714 13.916 6 16.4301C4.21714 13.9347 1.71429 9.85977 1.71429 7.19612Z" fill="#434645"/>
<path d="M8 6.88458C8 8.03163 7.10457 8.9615 6 8.9615C4.89543 8.9615 4 8.03163 4 6.88458C4 5.73752 4.89543 4.80765 6 4.80765C7.10457 4.80765 8 5.73752 8 6.88458Z" fill="#434645"/>
</svg>
