<svg width="78" height="40" viewBox="0 0 78 40" fill="none" xmlns="http://www.w3.org/2000/svg">
<rect width="78" height="40" rx="6" fill="white"/>
<g clip-path="url(#clip0_1406_2366)">
<path fill-rule="evenodd" clip-rule="evenodd" d="M32.8047 29.2955H43.778V9.66895H32.8047V29.2955Z" fill="#FF5F00"/>
<path fill-rule="evenodd" clip-rule="evenodd" d="M33.5003 19.482C33.5003 15.5002 35.3734 11.954 38.2902 9.66872C36.1569 7.99717 33.4655 7 30.5399 7C23.6142 7 18 12.5885 18 19.482C18 26.3755 23.6142 31.964 30.5399 31.964C33.4655 31.964 36.1569 30.9668 38.2902 29.2953C35.3734 27.0097 33.5003 23.4637 33.5003 19.482Z" fill="#EB001B"/>
<path fill-rule="evenodd" clip-rule="evenodd" d="M58.1878 27.2167V26.7323H58.0606L57.9146 27.0655L57.7683 26.7323H57.6412V27.2167H57.7307V26.8512L57.868 27.1664H57.961L58.0982 26.8505V27.2167H58.1878ZM57.3827 27.2167V26.8148H57.5457V26.733H57.1312V26.8148H57.2939V27.2167H57.3827ZM58.5793 19.482C58.5793 26.3755 52.9648 31.964 46.0394 31.964C43.1139 31.964 40.4221 30.9668 38.2891 29.2953C41.2059 27.01 43.079 23.4637 43.079 19.482C43.079 15.5006 41.2059 11.9543 38.2891 9.66872C40.4221 7.99717 43.1139 7 46.0394 7C52.9648 7 58.5793 12.5885 58.5793 19.482Z" fill="#F79E1B"/>
</g>
<defs>
<clipPath id="clip0_1406_2366">
<rect width="41" height="25" fill="white" transform="translate(18 7)"/>
</clipPath>
</defs>
</svg>
