<svg width="78" height="40" viewBox="0 0 78 40" fill="none" xmlns="http://www.w3.org/2000/svg">
<rect width="78" height="40" rx="6" fill="white"/>
<g clip-path="url(#clip0_1406_2376)">
<path fill-rule="evenodd" clip-rule="evenodd" d="M13.8767 12.1658C14.4275 12.1627 16.0644 12.0253 16.7577 14.2066C17.2247 15.676 17.9687 18.0829 18.9896 21.4274H19.4054C20.5002 17.9014 21.2523 15.4945 21.6617 14.2066C22.3622 12.0025 24.1136 12.1658 24.8142 12.1658L30.2192 12.1658V27.8392H24.7103V18.6026H24.3409L21.2699 27.8392H17.1251L14.0541 18.5958H13.6847V27.8392H8.17578V12.1658L13.8767 12.1658ZM38.13 12.1658V21.4093H38.5694L42.305 13.8084C43.0301 12.2959 44.5756 12.1658 44.5756 12.1658H49.9066V27.8393H44.2826V18.5958H43.8432L40.1808 26.1966C39.4557 27.7024 37.837 27.8393 37.837 27.8393H32.506V12.1658H38.13ZM69.3457 19.6139C68.5612 21.6863 66.0976 23.1704 63.37 23.1704H57.4722V27.8393H52.1241V19.6139H69.3457Z" fill="#0F754E"/>
<path fill-rule="evenodd" clip-rule="evenodd" d="M63.6281 12.166H51.8438C52.1242 15.6555 55.3478 18.6427 58.6849 18.6427H69.7174C70.3541 15.7425 68.1624 12.166 63.6281 12.166Z" fill="url(#paint0_linear_1406_2376)"/>
</g>
<defs>
<linearGradient id="paint0_linear_1406_2376" x1="69.8256" y1="16.2401" x2="51.8438" y2="16.2401" gradientUnits="userSpaceOnUse">
<stop stop-color="#1F5CD7"/>
<stop offset="1" stop-color="#02AEFF"/>
</linearGradient>
<clipPath id="clip0_1406_2376">
<rect width="62" height="16" fill="white" transform="translate(8 12)"/>
</clipPath>
</defs>
</svg>
