<svg width="30" height="31" viewBox="0 0 30 31" fill="none" xmlns="http://www.w3.org/2000/svg">
<g clip-path="url(#clip0_1429_26554)">
<path d="M14.2489 0.504671C11.8414 0.533733 6.66543 0.929358 3.77043 3.5853C1.61699 5.71905 0.865116 8.87373 0.776991 12.7747C0.703866 16.6615 0.615741 23.9609 7.65168 25.9484V28.9756C7.65168 28.9756 7.60762 30.1869 8.40824 30.4353C9.39449 30.7475 9.95605 29.8156 10.8936 28.8144L12.642 26.8372C17.4561 27.2375 21.1432 26.315 21.5679 26.1781C22.5448 25.8659 28.047 25.1628 28.9461 17.8625C29.8686 10.3231 28.497 5.5728 26.0211 3.42405H26.0061C25.2589 2.73592 22.2561 0.547796 15.5473 0.523421C15.5473 0.523421 15.0495 0.489671 14.2489 0.503733V0.504671ZM14.3314 2.62436C15.0148 2.61967 15.4301 2.64873 15.4301 2.64873C21.1086 2.66373 23.8189 4.37279 24.4582 4.94842C26.5432 6.73529 27.6176 11.0178 26.8311 17.3122C26.0839 23.4153 21.6214 23.8015 20.7954 24.065C20.4439 24.1775 17.1964 24.9781 13.1051 24.7147C13.1051 24.7147 10.0582 28.3915 9.10574 29.3384C8.9548 29.5044 8.77855 29.5531 8.66605 29.5287C8.5048 29.4894 8.45605 29.2897 8.46543 29.0159L8.49449 23.9919C2.5273 22.3419 2.87887 16.1159 2.94262 12.8637C3.01574 9.61154 3.62605 6.95092 5.44293 5.14905C7.88887 2.93748 12.2839 2.63936 14.3295 2.62436H14.3314ZM14.7814 5.87561C14.7323 5.87511 14.6835 5.88434 14.638 5.90277C14.5925 5.92119 14.551 5.94844 14.5161 5.98295C14.4811 6.01746 14.4534 6.05855 14.4344 6.10384C14.4154 6.14914 14.4055 6.19774 14.4054 6.24686C14.4054 6.45686 14.5761 6.6228 14.7814 6.6228C15.7109 6.60512 16.6347 6.77164 17.4996 7.11276C18.3645 7.45387 19.1532 7.96284 19.8204 8.6103C21.1826 9.93311 21.8464 11.7106 21.8717 14.0347C21.8717 14.24 22.0376 14.4106 22.2476 14.4106V14.3956C22.3466 14.3959 22.4416 14.357 22.5121 14.2874C22.5825 14.2179 22.6226 14.1233 22.6236 14.0244C22.6691 12.9304 22.4917 11.8387 22.1021 10.8155C21.7126 9.79222 21.1191 8.85888 20.3576 8.07217C18.8736 6.62186 16.9929 5.87467 14.7814 5.87467V5.87561ZM9.8398 6.73529C9.57444 6.69652 9.3038 6.74979 9.07293 6.88623H9.05324C8.51724 7.20043 8.03438 7.59753 7.62262 8.0628C7.28043 8.45842 7.0948 8.85873 7.04605 9.24404C7.01699 9.47373 7.03668 9.70342 7.10512 9.92279L7.12949 9.9378C7.5148 11.0703 8.01824 12.1597 8.63324 13.1853C9.42545 14.6262 10.4004 15.9588 11.5339 17.15L11.5676 17.1987L11.6211 17.2381L11.6548 17.2775L11.6942 17.3112C12.8897 18.448 14.2255 19.4275 15.6692 20.2259C17.3192 21.124 18.3204 21.5487 18.9214 21.725V21.7344C19.0976 21.7878 19.2579 21.8122 19.4192 21.8122C19.9313 21.7746 20.4162 21.5667 20.7964 21.2215C21.2595 20.8097 21.6522 20.3248 21.9589 19.7862V19.7769C22.2467 19.235 22.1492 18.7222 21.7339 18.3753C20.9021 17.6483 20.0027 17.0025 19.0479 16.4469C18.4086 16.1 17.7589 16.31 17.4954 16.6615L16.9339 17.3694C16.6461 17.7209 16.1229 17.6722 16.1229 17.6722L16.1079 17.6815C12.207 16.685 11.1664 12.7353 11.1664 12.7353C11.1664 12.7353 11.1176 12.1981 11.4786 11.9244L12.1817 11.3581C12.5182 11.0844 12.7526 10.4356 12.3917 9.7953C11.8399 8.83919 11.1955 7.93956 10.4679 7.10936C10.3089 6.91364 10.0857 6.78047 9.83793 6.73342L9.8398 6.73529ZM15.4301 7.84905C14.9323 7.84905 14.9323 8.60092 15.4348 8.60092C16.0538 8.61096 16.6648 8.74289 17.2328 8.98917C17.8008 9.23545 18.3147 9.59125 18.7451 10.0362C19.1378 10.4694 19.4395 10.9769 19.6324 11.5288C19.8253 12.0806 19.9055 12.6656 19.8682 13.249C19.87 13.3478 19.9103 13.4419 19.9805 13.5113C20.0508 13.5807 20.1454 13.6198 20.2442 13.6203L20.2592 13.64C20.3587 13.6392 20.4538 13.5994 20.5242 13.5291C20.5945 13.4587 20.6344 13.3635 20.6351 13.264C20.6689 11.7744 20.2057 10.5247 19.2973 9.52342C18.3842 8.52217 17.1101 7.96061 15.4836 7.84905H15.4301V7.84905ZM16.0461 9.8703C15.5332 9.8553 15.5136 10.6222 16.0217 10.6372C17.2573 10.7009 17.8573 11.3253 17.9361 12.6097C17.9378 12.7072 17.9776 12.8001 18.047 12.8686C18.1163 12.9371 18.2098 12.9758 18.3073 12.9762H18.3223C18.3724 12.9741 18.4216 12.962 18.467 12.9406C18.5124 12.9192 18.5531 12.889 18.5867 12.8518C18.6203 12.8145 18.6462 12.7709 18.6627 12.7236C18.6793 12.6762 18.6863 12.626 18.6832 12.5759C18.5951 10.9015 17.682 9.95842 16.0611 9.87123H16.0461V9.8703Z" fill="white"/>
</g>
<defs>
<clipPath id="clip0_1429_26554">
<rect width="30" height="30" fill="white" transform="translate(0 0.5)"/>
</clipPath>
</defs>
</svg>
