<svg width="78" height="40" viewBox="0 0 78 40" fill="none" xmlns="http://www.w3.org/2000/svg">
<rect width="78" height="40" rx="6" fill="white"/>
<g clip-path="url(#clip0_1406_2373)">
<path d="M46.2563 12.0244C42.8516 12.0244 39.8089 13.8362 39.8089 17.1836C39.8089 21.0224 45.2052 21.2876 45.2052 23.2161C45.2052 24.0281 44.2987 24.755 42.7506 24.755C40.5535 24.755 38.9114 23.7393 38.9114 23.7393L38.2087 27.1172C38.2087 27.1172 40.1004 27.9751 42.612 27.9751C46.3345 27.9751 49.2636 26.0744 49.2636 22.6698C49.2636 18.6134 43.8449 18.3561 43.8449 16.5661C43.8449 15.93 44.589 15.233 46.1327 15.233C47.8744 15.233 49.2955 15.9717 49.2955 15.9717L49.9831 12.7092C49.9831 12.7092 48.4369 12.0244 46.2563 12.0244ZM15.1059 12.2706L15.0234 12.7631C15.0234 12.7631 16.4558 13.0322 17.7459 13.5691C19.4071 14.1847 19.5254 14.5431 19.8051 15.6562L22.8537 27.7212H26.9402L33.2359 12.2706H29.1587L25.1134 22.7756L23.4626 13.8711C23.3112 12.852 22.5444 12.2706 21.6058 12.2706H15.1059ZM34.8754 12.2706L31.677 27.7212H35.5649L38.7521 12.2706H34.8754ZM56.5599 12.2706C55.6223 12.2706 55.1256 12.7859 54.7611 13.6864L49.065 27.7212H53.1422L53.931 25.3821H58.8983L59.3779 27.7212H62.9754L59.837 12.2706H56.5599ZM57.0901 16.4449L58.2987 22.2427H55.0609L57.0901 16.4449Z" fill="#1434CB"/>
</g>
<defs>
<clipPath id="clip0_1406_2373">
<rect width="48" height="16" fill="white" transform="translate(15 12)"/>
</clipPath>
</defs>
</svg>
