<svg width="30" height="31" viewBox="0 0 30 31" fill="none" xmlns="http://www.w3.org/2000/svg">
<g clip-path="url(#clip0_1429_26546)">
<path d="M14.2673 0.518867C6.27839 0.894631 -0.0240034 7.49305 6.87278e-05 15.4247C0.00402648 17.7594 0.563542 20.0597 1.63246 22.1358L0.0406904 29.8029C0.0212686 29.8988 0.0263542 29.998 0.0554765 30.0914C0.0845988 30.1847 0.136817 30.2693 0.207304 30.3371C0.277791 30.405 0.36427 30.454 0.458745 30.4797C0.553219 30.5053 0.652639 30.5067 0.74781 30.4838L8.32151 28.7042C10.3274 29.6945 12.5295 30.2245 14.7668 30.2553C22.9318 30.3801 29.7382 23.95 29.9925 15.8561C30.2663 7.1759 23.0461 0.10252 14.2673 0.517364V0.518867ZM23.3049 23.6163C22.2134 24.7029 20.9179 25.5636 19.4928 26.1491C18.0677 26.7346 16.5409 27.0334 15 27.0283C13.1871 27.0338 11.3978 26.618 9.77336 25.8138L8.7187 25.2922L4.07428 26.3835L5.05221 21.6774L4.53165 20.6673C3.68777 19.0331 3.25016 17.2199 3.25583 15.3811C3.25583 12.2698 4.47749 9.34331 6.69513 7.14434C8.90555 4.95845 11.8898 3.73186 15 3.7309C18.1384 3.7309 21.0873 4.94236 23.3049 7.14284C24.3975 8.21848 25.2645 9.5009 25.8553 10.9152C26.4461 12.3294 26.7488 13.8471 26.7457 15.3796C26.7457 18.4639 25.5045 21.4354 23.3049 23.6163Z" fill="white"/>
<path d="M22.2805 18.6051L19.3753 17.7785C19.1879 17.7247 18.9894 17.7223 18.8007 17.7715C18.6119 17.8207 18.4399 17.9196 18.3026 18.058L17.5925 18.7765C17.4456 18.9252 17.258 19.0273 17.0533 19.0701C16.8486 19.1128 16.6358 19.0944 16.4415 19.017C15.0679 18.4654 12.1763 15.9162 11.4375 14.6401C11.334 14.4598 11.2867 14.2528 11.3017 14.0455C11.3167 13.8383 11.3934 13.6402 11.5218 13.4767L12.1417 12.6801C12.261 12.5275 12.3365 12.3453 12.3601 12.153C12.3837 11.9608 12.3545 11.7658 12.2756 11.5889L11.0539 8.84731C10.9848 8.69407 10.8811 8.55894 10.7509 8.45252C10.6207 8.34611 10.4675 8.27132 10.3035 8.23403C10.1394 8.19673 9.96899 8.19796 9.80551 8.23761C9.64203 8.27726 9.48999 8.35425 9.36133 8.46252C8.5504 9.14341 7.58751 10.176 7.47166 11.3228C7.26554 13.3414 8.13816 15.8861 11.4391 18.9433C15.253 22.474 18.3086 22.9415 20.2961 22.462C21.4245 22.1914 22.3272 21.1047 22.8944 20.2164C22.9851 20.0753 23.0414 19.9149 23.0588 19.7481C23.0761 19.5813 23.0541 19.4128 22.9944 19.2561C22.9347 19.0993 22.839 18.9588 22.715 18.8458C22.591 18.7327 22.4422 18.6503 22.2805 18.6051Z" fill="white"/>
</g>
<defs>
<clipPath id="clip0_1429_26546">
<rect width="30" height="30" fill="white" transform="translate(0 0.5)"/>
</clipPath>
</defs>
</svg>
