<svg width="258" height="45" viewBox="0 0 258 45" fill="none" xmlns="http://www.w3.org/2000/svg">
<g clip-path="url(#clip0_1402_18534)">
<path fill-rule="evenodd" clip-rule="evenodd" d="M192.625 21.6529L197.71 14.4658L225.312 14.6797L219.971 21.824L192.625 21.6529Z" fill="#E41F17"/>
<path fill-rule="evenodd" clip-rule="evenodd" d="M225.312 14.6798L230.654 7.23608H258L252.958 14.7226L225.312 14.6798Z" fill="#E41F17"/>
<path fill-rule="evenodd" clip-rule="evenodd" d="M202.836 7.23612L207.921 0.0490723H235.566L230.652 7.23612H202.836Z" fill="#E41F17"/>
<path fill-rule="evenodd" clip-rule="evenodd" d="M0 0.245361H20.2703C22.7811 0.245361 24.6183 0.735863 25.7819 1.71687C26.9454 2.69788 27.4966 4.23072 27.4966 6.37667V9.44233C27.4966 11.5883 26.9454 13.1824 25.7819 14.1021C24.6183 15.0831 22.7811 15.5736 20.2703 15.5736H6.4914V21.705H0V0.245361ZM21.0052 6.43799C21.0052 5.21172 20.2703 4.59859 18.8618 4.59859H6.4914V11.343H18.8618C20.3316 11.343 21.0052 10.7299 21.0052 9.50364V6.43799Z" fill="#434645"/>
<path fill-rule="evenodd" clip-rule="evenodd" d="M39.6828 21.7663H33.1914V17.4743V4.53728V0.245361H39.6828V4.53728V17.4743V21.7663Z" fill="#434645"/>
<path fill-rule="evenodd" clip-rule="evenodd" d="M59.4013 21.7663H52.9712V4.53728H42.7969L47.0842 0.245361H71.2818L66.9951 4.53728H59.4013V21.7663Z" fill="#434645"/>
<path fill-rule="evenodd" clip-rule="evenodd" d="M115.019 21.7587H108.588V4.52971H98.4141L102.701 0.237793H126.899L122.612 4.52971H115.019V21.7587Z" fill="#434645"/>
<path fill-rule="evenodd" clip-rule="evenodd" d="M79.1816 7.05102C79.1816 8.27728 79.9164 8.89041 81.3249 8.89041H87.8163C90.1434 8.89041 91.9194 9.38092 93.0217 10.3006C94.124 11.2203 94.6752 12.6918 94.6752 14.6538V16.1867C94.6752 18.1487 94.124 19.6202 93.0217 20.5399C91.9194 21.4596 90.2047 21.9501 87.8163 21.9501C87.0815 21.9501 86.3466 21.9501 85.5505 21.9501C84.7544 21.9501 83.9582 21.9501 83.1009 21.9501C82.2435 21.9501 81.4474 21.9501 80.5901 21.9501C79.7327 21.9501 78.9978 21.9501 78.2017 21.9501C76.4258 21.9501 74.5886 21.8888 72.8126 21.8888L77.2831 17.6582C79.0591 17.6582 76.4258 17.6582 78.0792 17.6582C79.4877 17.6582 80.9575 17.6582 82.4885 17.6582C84.0195 17.6582 85.3055 17.6582 86.3466 17.6582C86.8977 17.6582 87.3264 17.5356 87.6326 17.2903C87.9388 17.0451 88.1225 16.6772 88.1225 16.248V13.6115H79.8552C77.3444 13.6115 75.5072 13.121 74.3436 12.14C73.1801 11.159 72.6289 9.62617 72.6289 7.48021V6.56051C72.6289 4.41455 73.1801 2.82041 74.3436 1.90072C75.5072 0.919705 77.3444 0.429199 79.8552 0.429199H94.7364L90.1434 4.72112H81.3249C79.9164 4.72112 79.1816 5.33425 79.1816 6.56051V7.05102V7.05102Z" fill="#434645"/>
<path fill-rule="evenodd" clip-rule="evenodd" d="M144.709 6.13131C144.709 4.90505 143.975 4.29192 142.566 4.29192H136.442C135.034 4.29192 134.299 4.90505 134.299 6.13131V15.9414C134.299 17.1677 135.034 17.7808 136.442 17.7808H142.566C144.036 17.7808 144.709 17.1677 144.709 15.9414V6.13131ZM151.201 15.9414C151.201 18.0874 150.65 19.6815 149.486 20.6012C148.323 21.5822 146.485 22.0727 143.975 22.0727H134.972C132.462 22.0727 130.624 21.5822 129.461 20.6012C128.297 19.6202 127.746 18.0874 127.746 15.9414V6.13131C127.746 3.98535 128.297 2.39121 129.461 1.47152C130.624 0.551819 132.462 0 134.972 0H143.975C146.485 0 148.323 0.490506 149.486 1.47152C150.65 2.45253 151.201 3.98535 151.201 6.13131V15.9414Z" fill="#434645"/>
<path fill-rule="evenodd" clip-rule="evenodd" d="M156.895 0.245361H176.185C178.696 0.245361 180.533 0.735863 181.697 1.71687C182.86 2.69788 183.411 4.23072 183.411 6.37667V9.44233C183.411 11.5883 182.86 13.1824 181.697 14.1021C180.533 15.0831 178.696 15.5736 176.185 15.5736H163.386V21.705H156.895V0.245361ZM176.92 6.43799C176.92 5.21172 176.185 4.59859 174.776 4.59859H163.386V11.343H174.776C176.246 11.343 176.92 10.7299 176.92 9.50364V6.43799Z" fill="#434645"/>
<path d="M27.3696 37.5839V36.1966H27.9927V42.3351H27.3696V40.9478C27.1008 41.4225 26.7383 41.7949 26.2822 42.065C25.826 42.3351 25.3129 42.4701 24.7427 42.4701C23.8792 42.4701 23.1339 42.1632 22.5067 41.5493C21.8877 40.9273 21.5781 40.1661 21.5781 39.2658C21.5781 38.3655 21.8877 37.6084 22.5067 36.9946C23.1258 36.3725 23.8711 36.0615 24.7427 36.0615C25.3129 36.0615 25.826 36.1966 26.2822 36.4667C26.7383 36.7368 27.1008 37.1092 27.3696 37.5839ZM22.9466 41.1196C23.4516 41.6271 24.0666 41.8808 24.7915 41.8808C25.5084 41.8808 26.1193 41.6271 26.6243 41.1196C27.1212 40.6204 27.3696 40.0024 27.3696 39.2658C27.3696 38.5292 27.1212 37.9113 26.6243 37.412C26.1193 36.9045 25.5084 36.6508 24.7915 36.6508C24.0666 36.6508 23.4516 36.9045 22.9466 37.412C22.4497 37.9113 22.2013 38.5292 22.2013 39.2658C22.2013 40.0024 22.4497 40.6204 22.9466 41.1196Z" fill="#434645"/>
<path d="M33.8763 39.1676C34.5931 39.3968 34.9515 39.8879 34.9515 40.6408C34.9515 41.1483 34.7845 41.5575 34.4505 41.8685C34.1247 42.1796 33.6645 42.3351 33.0698 42.3351H30.113V36.1966H32.8377C33.4079 36.1966 33.8518 36.348 34.1695 36.6508C34.4953 36.9455 34.6582 37.3301 34.6582 37.8049C34.6582 38.4596 34.3976 38.9139 33.8763 39.1676ZM32.8377 36.7981H30.7239V38.9221H32.8377C33.2287 38.9221 33.526 38.8279 33.7296 38.6397C33.9333 38.4514 34.0351 38.1854 34.0351 37.8417C34.0351 37.5143 33.9292 37.2606 33.7174 37.0805C33.5138 36.8923 33.2205 36.7981 32.8377 36.7981ZM30.7239 41.7335H33.0698C33.4771 41.7335 33.7907 41.6353 34.0107 41.4388C34.2306 41.2424 34.3406 40.9682 34.3406 40.6163C34.3406 40.2725 34.2265 40.0065 33.9984 39.8183C33.7785 39.6219 33.469 39.5236 33.0698 39.5236H30.7239V41.7335Z" fill="#434645"/>
<path d="M35.5295 36.1966H40.5878V36.7981H38.3641V42.3351H37.7532V36.7981H35.5295V36.1966Z" fill="#434645"/>
<path d="M44.4965 42.4701C43.6005 42.4701 42.8388 42.1632 42.2116 41.5493C41.5926 40.9273 41.283 40.1661 41.283 39.2658C41.283 38.3655 41.5926 37.6084 42.2116 36.9946C42.8307 36.3725 43.5923 36.0615 44.4965 36.0615C45.3843 36.0615 46.1378 36.3725 46.7569 36.9946C47.3841 37.6084 47.6977 38.3655 47.6977 39.2658C47.6977 40.1579 47.3841 40.9191 46.7569 41.5493C46.1297 42.1632 45.3762 42.4701 44.4965 42.4701ZM42.6515 41.1196C43.1565 41.6271 43.7715 41.8808 44.4965 41.8808C45.2133 41.8808 45.8242 41.6271 46.3292 41.1196C46.8261 40.6204 47.0745 40.0024 47.0745 39.2658C47.0745 38.5292 46.8261 37.9113 46.3292 37.412C45.8242 36.9045 45.2133 36.6508 44.4965 36.6508C43.7715 36.6508 43.1565 36.9045 42.6515 37.412C42.1546 37.9113 41.9062 38.5292 41.9062 39.2658C41.9062 40.0024 42.1546 40.6204 42.6515 41.1196Z" fill="#434645"/>
<path d="M52.106 39.1676C52.4726 39.2904 52.7577 39.4868 52.9613 39.7569C53.1649 40.027 53.2667 40.338 53.2667 40.69C53.2667 41.2056 53.0631 41.6312 52.6558 41.9668C52.2567 42.3023 51.7109 42.4701 51.0186 42.4701C49.7967 42.4701 49.0025 41.9872 48.636 41.0214L49.1614 40.7145C49.422 41.4921 50.0411 41.8808 51.0186 41.8808C51.5236 41.8808 51.9187 41.7703 52.2038 41.5493C52.497 41.3202 52.6436 41.0214 52.6436 40.6531C52.6436 40.3176 52.5214 40.0475 52.2771 39.8428C52.0327 39.63 51.7069 39.5236 51.2996 39.5236H50.4565V38.9221H51.0674C51.4666 38.9221 51.7802 38.8198 52.0083 38.6151C52.2363 38.4105 52.3504 38.1363 52.3504 37.7926C52.3504 37.4652 52.216 37.1951 51.9472 36.9823C51.6865 36.7613 51.3403 36.6508 50.9086 36.6508C50.0778 36.6508 49.5279 36.9823 49.2591 37.6453L48.746 37.3506C48.9252 36.9496 49.198 36.6345 49.5646 36.4053C49.9311 36.1761 50.3791 36.0615 50.9086 36.0615C51.5277 36.0615 52.0245 36.2293 52.3992 36.5649C52.7739 36.8923 52.9613 37.2933 52.9613 37.768C52.9613 38.431 52.6762 38.8975 52.106 39.1676Z" fill="#434645"/>
<path d="M60.235 37.5839V36.1966H60.8582V42.3351H60.235V40.9478C59.9662 41.4225 59.6037 41.7949 59.1476 42.065C58.6914 42.3351 58.1783 42.4701 57.6081 42.4701C56.7446 42.4701 55.9993 42.1632 55.3721 41.5493C54.7531 40.9273 54.4435 40.1661 54.4435 39.2658C54.4435 38.3655 54.7531 37.6084 55.3721 36.9946C55.9912 36.3725 56.7365 36.0615 57.6081 36.0615C58.1783 36.0615 58.6914 36.1966 59.1476 36.4667C59.6037 36.7368 59.9662 37.1092 60.235 37.5839ZM55.812 41.1196C56.317 41.6271 56.932 41.8808 57.6569 41.8808C58.3738 41.8808 58.9847 41.6271 59.4897 41.1196C59.9866 40.6204 60.235 40.0024 60.235 39.2658C60.235 38.5292 59.9866 37.9113 59.4897 37.412C58.9847 36.9045 58.3738 36.6508 57.6569 36.6508C56.932 36.6508 56.317 36.9045 55.812 37.412C55.3151 37.9113 55.0667 38.5292 55.0667 39.2658C55.0667 40.0024 55.3151 40.6204 55.812 41.1196Z" fill="#434645"/>
<path d="M62.9784 36.1966H68.0246V42.3351H67.4014V36.7981H63.5893V42.3351H62.9784V36.1966Z" fill="#434645"/>
<path d="M74.2117 39.3518V36.1966H74.8349V42.3351H74.2117V39.9288C73.6741 40.1989 73.0551 40.3339 72.3546 40.3339C71.5726 40.3339 70.9698 40.1498 70.5462 39.7815C70.1227 39.4131 69.9109 38.8852 69.9109 38.1977V36.1966H70.5218V38.1977C70.5218 39.229 71.1246 39.7446 72.3301 39.7446C72.9899 39.7446 73.6171 39.6137 74.2117 39.3518Z" fill="#434645"/>
<path d="M82.3383 37.5839V36.1966H82.9614V42.3351H82.3383V40.9478C82.0695 41.4225 81.707 41.7949 81.2508 42.065C80.7947 42.3351 80.2815 42.4701 79.7113 42.4701C78.8479 42.4701 78.1026 42.1632 77.4754 41.5493C76.8563 40.9273 76.5468 40.1661 76.5468 39.2658C76.5468 38.3655 76.8563 37.6084 77.4754 36.9946C78.0944 36.3725 78.8397 36.0615 79.7113 36.0615C80.2815 36.0615 80.7947 36.1966 81.2508 36.4667C81.707 36.7368 82.0695 37.1092 82.3383 37.5839ZM77.9152 41.1196C78.4202 41.6271 79.0352 41.8808 79.7602 41.8808C80.477 41.8808 81.0879 41.6271 81.5929 41.1196C82.0898 40.6204 82.3383 40.0024 82.3383 39.2658C82.3383 38.5292 82.0898 37.9113 81.5929 37.412C81.0879 36.9045 80.477 36.6508 79.7602 36.6508C79.0352 36.6508 78.4202 36.9045 77.9152 37.412C77.4183 37.9113 77.1699 38.5292 77.1699 39.2658C77.1699 40.0024 77.4183 40.6204 77.9152 41.1196Z" fill="#434645"/>
<path d="M87.8797 42.4701C86.9592 42.4701 86.1935 42.1632 85.5826 41.5493C84.9717 40.9355 84.6662 40.1743 84.6662 39.2658C84.6662 38.3573 84.9717 37.5961 85.5826 36.9823C86.1935 36.3684 86.9592 36.0615 87.8797 36.0615C88.4743 36.0615 89.0119 36.2048 89.4925 36.4912C89.9731 36.7695 90.3233 37.1501 90.5433 37.633L90.0423 37.9276C89.8631 37.5348 89.578 37.2237 89.187 36.9946C88.8042 36.7654 88.3684 36.6508 87.8797 36.6508C87.1547 36.6508 86.5397 36.9045 86.0347 37.412C85.5378 37.9113 85.2894 38.5292 85.2894 39.2658C85.2894 40.0106 85.5378 40.6327 86.0347 41.1319C86.5316 41.6312 87.1466 41.8808 87.8797 41.8808C88.3684 41.8808 88.8042 41.7662 89.187 41.5371C89.578 41.3079 89.8753 40.9969 90.079 40.604L90.5921 40.9109C90.3478 41.3857 89.9812 41.7662 89.4925 42.0527C89.0037 42.331 88.4661 42.4701 87.8797 42.4701Z" fill="#434645"/>
<path d="M91.2737 36.1966H96.3321V36.7981H94.1083V42.3351H93.4974V36.7981H91.2737V36.1966Z" fill="#434645"/>
<path d="M98.2923 41.267L102.19 36.1966H102.728V42.3351H102.104V37.2647L98.2189 42.3351H97.6813V36.1966H98.2923V41.267Z" fill="#434645"/>
<path d="M108.971 41.267L112.869 36.1966H113.406V42.3351H112.783V37.2647L108.898 42.3351H108.36V36.1966H108.971V41.267Z" fill="#434645"/>
<path d="M121.837 42.4701C120.916 42.4701 120.15 42.1632 119.54 41.5493C118.929 40.9355 118.623 40.1743 118.623 39.2658C118.623 38.3573 118.929 37.5961 119.54 36.9823C120.15 36.3684 120.916 36.0615 121.837 36.0615C122.431 36.0615 122.969 36.2048 123.449 36.4912C123.93 36.7695 124.28 37.1501 124.5 37.633L123.999 37.9276C123.82 37.5348 123.535 37.2237 123.144 36.9946C122.761 36.7654 122.325 36.6508 121.837 36.6508C121.112 36.6508 120.497 36.9045 119.992 37.412C119.495 37.9113 119.246 38.5292 119.246 39.2658C119.246 40.0106 119.495 40.6327 119.992 41.1319C120.489 41.6312 121.103 41.8808 121.837 41.8808C122.325 41.8808 122.761 41.7662 123.144 41.5371C123.535 41.3079 123.832 40.9969 124.036 40.604L124.549 40.9109C124.305 41.3857 123.938 41.7662 123.449 42.0527C122.961 42.331 122.423 42.4701 121.837 42.4701Z" fill="#434645"/>
<path d="M128.821 36.0615C129.717 36.0615 130.442 36.3807 130.996 37.0191C131.558 37.6575 131.839 38.4146 131.839 39.2904C131.839 39.3067 131.835 39.3559 131.827 39.4377C131.827 39.5195 131.827 39.5687 131.827 39.585H126.292C126.365 40.2725 126.638 40.8291 127.111 41.2547C127.583 41.6721 128.174 41.8808 128.882 41.8808C129.363 41.8808 129.787 41.7826 130.153 41.5862C130.52 41.3816 130.801 41.1074 130.996 40.7636L131.534 41.0828C131.281 41.5084 130.919 41.8481 130.446 42.1018C129.982 42.3473 129.457 42.4701 128.87 42.4701C127.925 42.4701 127.156 42.1714 126.561 41.5739C125.958 40.9682 125.657 40.1989 125.657 39.2658C125.657 38.3491 125.95 37.588 126.537 36.9823C127.139 36.3684 127.901 36.0615 128.821 36.0615ZM128.821 36.6508C128.137 36.6508 127.559 36.8677 127.086 37.3015C126.622 37.7353 126.357 38.2959 126.292 38.9835H131.204C131.139 38.255 130.878 37.6862 130.422 37.2769C129.966 36.8595 129.432 36.6508 128.821 36.6508Z" fill="#434645"/>
<path d="M136.749 36.0615C137.629 36.0615 138.374 36.3725 138.985 36.9946C139.604 37.6084 139.914 38.3655 139.914 39.2658C139.914 40.1661 139.604 40.9273 138.985 41.5493C138.374 42.1632 137.629 42.4701 136.749 42.4701C136.171 42.4701 135.65 42.3351 135.186 42.065C134.729 41.7867 134.375 41.402 134.123 40.9109V44.7905H133.512V36.1966H134.123V37.6207C134.375 37.1296 134.729 36.749 135.186 36.4789C135.65 36.2007 136.171 36.0615 136.749 36.0615ZM134.868 41.1196C135.373 41.6271 135.988 41.8808 136.713 41.8808C137.43 41.8808 138.041 41.6271 138.546 41.1196C139.051 40.6122 139.303 39.9943 139.303 39.2658C139.303 38.5374 139.051 37.9194 138.546 37.412C138.041 36.9045 137.43 36.6508 136.713 36.6508C135.988 36.6508 135.373 36.9045 134.868 37.412C134.371 37.9113 134.123 38.5292 134.123 39.2658C134.123 40.0024 134.371 40.6204 134.868 41.1196Z" fill="#434645"/>
<path d="M145.394 39.1676C146.111 39.3968 146.47 39.8879 146.47 40.6408C146.47 41.1483 146.303 41.5575 145.969 41.8685C145.643 42.1796 145.183 42.3351 144.588 42.3351H141.631V36.1966H144.356C144.926 36.1966 145.37 36.348 145.688 36.6508C146.013 36.9455 146.176 37.3301 146.176 37.8049C146.176 38.4596 145.916 38.9139 145.394 39.1676ZM144.356 36.7981H142.242V38.9221H144.356C144.747 38.9221 145.044 38.8279 145.248 38.6397C145.451 38.4514 145.553 38.1854 145.553 37.8417C145.553 37.5143 145.447 37.2606 145.235 37.0805C145.032 36.8923 144.739 36.7981 144.356 36.7981ZM142.242 41.7335H144.588C144.995 41.7335 145.309 41.6353 145.529 41.4388C145.749 41.2424 145.859 40.9682 145.859 40.6163C145.859 40.2725 145.745 40.0065 145.516 39.8183C145.297 39.6219 144.987 39.5236 144.588 39.5236H142.242V41.7335Z" fill="#434645"/>
<path d="M148.679 41.267L152.577 36.1966H153.114V42.3351H152.491V37.2647L148.606 42.3351H148.068V36.1966H148.679V41.267Z" fill="#434645"/>
<path d="M158.043 42.4701C157.122 42.4701 156.357 42.1632 155.746 41.5493C155.135 40.9355 154.83 40.1743 154.83 39.2658C154.83 38.3573 155.135 37.5961 155.746 36.9823C156.357 36.3684 157.122 36.0615 158.043 36.0615C158.638 36.0615 159.175 36.2048 159.656 36.4912C160.136 36.7695 160.487 37.1501 160.707 37.633L160.206 37.9276C160.026 37.5348 159.741 37.2237 159.35 36.9946C158.967 36.7654 158.532 36.6508 158.043 36.6508C157.318 36.6508 156.703 36.9045 156.198 37.412C155.701 37.9113 155.453 38.5292 155.453 39.2658C155.453 40.0106 155.701 40.6327 156.198 41.1319C156.695 41.6312 157.31 41.8808 158.043 41.8808C158.532 41.8808 158.967 41.7662 159.35 41.5371C159.741 41.3079 160.039 40.9969 160.242 40.604L160.755 40.9109C160.511 41.3857 160.144 41.7662 159.656 42.0527C159.167 42.331 158.629 42.4701 158.043 42.4701Z" fill="#434645"/>
</g>
<defs>
<clipPath id="clip0_1402_18534">
<rect width="258" height="45" fill="white"/>
</clipPath>
</defs>
</svg>
