<svg width="50" height="50" viewBox="0 0 50 50" fill="none" xmlns="http://www.w3.org/2000/svg">
<circle cx="25" cy="25" r="25" fill="url(#paint0_linear_1433_2344)"/>
<g clip-path="url(#clip0_1433_2344)">
<path d="M24.4139 13.0151C18.0227 13.3157 12.9808 18.5944 13.0001 24.9397C13.0032 26.8075 13.4508 28.6477 14.306 30.3087L13.0326 36.4423C13.017 36.519 13.0211 36.5984 13.0444 36.6731C13.0677 36.7478 13.1095 36.8154 13.1658 36.8697C13.2222 36.924 13.2914 36.9632 13.367 36.9837C13.4426 37.0042 13.5221 37.0054 13.5982 36.987L19.6572 35.5633C21.262 36.3556 23.0236 36.7796 24.8135 36.8043C31.3454 36.9041 36.7906 31.76 36.994 25.2848C37.213 18.3407 31.4369 12.682 24.4139 13.0139V13.0151ZM31.6439 31.4931C30.7707 32.3623 29.7343 33.0509 28.5942 33.5193C27.4542 33.9877 26.2327 34.2267 25 34.2226C23.5497 34.2271 22.1182 33.8944 20.8187 33.251L19.975 32.8338L16.2594 33.7068L17.0418 29.9419L16.6253 29.1339C15.9502 27.8265 15.6001 26.376 15.6047 24.9049C15.6047 22.4158 16.582 20.0746 18.3561 18.3155C20.1244 16.5668 22.5119 15.5855 25 15.5847C27.5107 15.5847 29.8698 16.5539 31.6439 18.3143C32.518 19.1748 33.2116 20.2007 33.6843 21.3321C34.1569 22.4635 34.399 23.6777 34.3966 24.9037C34.3966 27.3711 33.4036 29.7483 31.6439 31.4931Z" fill="white"/>
<path d="M30.8244 27.4841L28.5003 26.8228C28.3503 26.7798 28.1915 26.7778 28.0405 26.8172C27.8895 26.8565 27.7519 26.9357 27.6421 27.0464L27.074 27.6212C26.9564 27.7401 26.8064 27.8218 26.6426 27.8561C26.4789 27.8903 26.3086 27.8755 26.1532 27.8136C25.0543 27.3723 22.741 25.3329 22.15 24.3121C22.0672 24.1679 22.0294 24.0023 22.0414 23.8364C22.0534 23.6706 22.1147 23.5122 22.2174 23.3814L22.7133 22.7441C22.8088 22.622 22.8692 22.4762 22.8881 22.3224C22.9069 22.1686 22.8836 22.0126 22.8204 21.8711L21.8431 19.6778C21.7878 19.5553 21.7049 19.4471 21.6007 19.362C21.4965 19.2769 21.374 19.2171 21.2428 19.1872C21.1116 19.1574 20.9752 19.1584 20.8444 19.1901C20.7136 19.2218 20.592 19.2834 20.4891 19.37C19.8403 19.9147 19.07 20.7408 18.9773 21.6583C18.8124 23.2732 19.5105 25.3089 22.1512 27.7547C25.2024 30.5792 27.6469 30.9532 29.2369 30.5696C30.1396 30.3532 30.8617 29.4838 31.3155 28.7731C31.3881 28.6603 31.4331 28.5319 31.447 28.3985C31.4609 28.2651 31.4433 28.1302 31.3955 28.0049C31.3477 27.8795 31.2712 27.767 31.172 27.6766C31.0728 27.5862 30.9538 27.5202 30.8244 27.4841Z" fill="white"/>
</g>
<defs>
<linearGradient id="paint0_linear_1433_2344" x1="41.5" y1="7.5" x2="13" y2="44.5" gradientUnits="userSpaceOnUse">
<stop stop-color="#5FFB7B"/>
<stop offset="1" stop-color="#28D246"/>
</linearGradient>
<clipPath id="clip0_1433_2344">
<rect width="24" height="24" fill="white" transform="translate(13 13)"/>
</clipPath>
</defs>
</svg>
