<svg width="50" height="50" viewBox="0 0 50 50" fill="none" xmlns="http://www.w3.org/2000/svg">
<circle cx="25" cy="25" r="25" fill="url(#paint0_linear_1433_2348)"/>
<path d="M35.3975 14.7325L14.1215 22.9369C12.6695 23.5201 12.6779 24.3301 13.8551 24.6913L19.3175 26.3953L31.9559 18.4213C32.5535 18.0577 33.0995 18.2533 32.6507 18.6517L22.4111 27.8929H22.4087L22.4111 27.8941L22.0343 33.5245C22.5863 33.5245 22.8299 33.2713 23.1395 32.9725L25.7927 30.3925L31.3115 34.4689C32.3291 35.0293 33.0599 34.7413 33.3131 33.5269L36.9359 16.4533C37.3067 14.9665 36.3683 14.2933 35.3975 14.7325Z" fill="white"/>
<defs>
<linearGradient id="paint0_linear_1433_2348" x1="33.3353" y1="8.33526" x2="20.8353" y2="37.5" gradientUnits="userSpaceOnUse">
<stop stop-color="#37AEE2"/>
<stop offset="1" stop-color="#1E96C8"/>
</linearGradient>
</defs>
</svg>
