<svg width="50" height="50" viewBox="0 0 50 50" fill="none" xmlns="http://www.w3.org/2000/svg">
<circle cx="25" cy="25" r="25" fill="#2787F5"/>
<path fill-rule="evenodd" clip-rule="evenodd" d="M34.3625 28.6145C34.3625 28.6145 36.3029 30.663 36.7829 31.611C36.7923 31.6246 36.7996 31.6398 36.8045 31.6559C37.0001 32.0061 37.0481 32.2806 36.9521 32.4832C36.7901 32.818 36.2417 32.9861 36.0557 33.0002H32.6261C32.3873 33.0002 31.8905 32.9335 31.2857 32.4871C30.8237 32.142 30.3641 31.5738 29.9189 31.0184C29.2541 30.1936 28.6793 29.4778 28.0973 29.4778C28.0238 29.4776 27.9508 29.4906 27.8813 29.5163C27.4409 29.6651 26.8817 30.3359 26.8817 32.1228C26.8817 32.682 26.4689 33.0002 26.1797 33.0002H24.6089C24.0737 33.0002 21.2873 32.8001 18.8165 30.0153C15.7889 26.6058 13.0697 19.7663 13.0433 19.706C12.8741 19.2635 13.2293 19.0223 13.6133 19.0223H17.0765C17.5409 19.0223 17.6921 19.3225 17.7977 19.5918C17.9201 19.901 18.3737 21.1375 19.1177 22.5267C20.3225 24.7869 21.0629 25.7066 21.6545 25.7066C21.7657 25.7069 21.8749 25.676 21.9713 25.6168C22.7441 25.1627 22.6001 22.2125 22.5641 21.6044C22.5641 21.4864 22.5629 20.2871 22.1669 19.7073C21.8837 19.2917 21.4013 19.1301 21.1097 19.0711C21.1877 18.9505 21.3533 18.7658 21.5657 18.6567C22.0949 18.3745 23.0513 18.3335 24.0005 18.3335H24.5273C25.5569 18.3489 25.8233 18.4194 26.1977 18.5208C26.9513 18.7132 26.9657 19.2353 26.8997 21.0131C26.8805 21.5211 26.8601 22.0932 26.8601 22.7666C26.8601 22.9103 26.8541 23.0706 26.8541 23.2335C26.8313 24.1455 26.8013 25.173 27.4037 25.595C27.4819 25.647 27.5721 25.6746 27.6641 25.6745C27.8729 25.6745 28.4981 25.6745 30.1937 22.5639C30.9377 21.1901 31.5137 19.57 31.5533 19.4482C31.5869 19.3802 31.6877 19.1891 31.8101 19.1121C31.8972 19.0626 31.9947 19.0379 32.0933 19.0403H36.1673C36.6113 19.0403 36.9125 19.1121 36.9713 19.2917C37.0697 19.5829 36.9521 20.4718 35.0921 23.1604C34.7789 23.6081 34.5041 23.9954 34.2629 24.3341C32.5769 26.6994 32.5769 26.8187 34.3625 28.6145Z" fill="white"/>
</svg>
