<svg width="50" height="50" viewBox="0 0 50 50" fill="none" xmlns="http://www.w3.org/2000/svg">
<circle cx="25" cy="25" r="25" fill="white"/>
<g clip-path="url(#clip0_1433_2356)">
<path d="M32.8573 18.5984C32.8573 17.8003 32.2104 17.1559 31.4153 17.1559C30.6201 17.1559 29.9727 17.8003 29.9727 18.5984C29.9727 19.3936 30.6201 20.0381 31.4153 20.0381C32.2104 20.0381 32.8573 19.3936 32.8573 18.5984Z" fill="url(#paint0_linear_1433_2356)"/>
<path d="M34.7802 29.8591C34.7268 31.0299 34.5309 31.6661 34.3684 32.0886C34.15 32.6488 33.8895 33.0493 33.467 33.4695C33.0492 33.8896 32.6486 34.1495 32.0884 34.3655C31.6659 34.5305 31.0274 34.7269 29.8566 34.7827C28.5909 34.8385 28.2158 34.8504 25.006 34.8504C21.7992 34.8504 21.4212 34.8385 20.1554 34.7827C18.9846 34.7269 18.3491 34.5305 17.9265 34.3655C17.3634 34.1495 16.9658 33.8896 16.5457 33.4695C16.1226 33.0493 15.8621 32.6488 15.6467 32.0886C15.484 31.6661 15.2853 31.0299 15.2348 29.8591C15.1731 28.5933 15.1618 28.2124 15.1618 25.0091C15.1618 21.7993 15.1731 21.4213 15.2348 20.1555C15.2853 18.9848 15.484 18.3492 15.6467 17.9231C15.8621 17.3635 16.1226 16.9653 16.5457 16.5452C16.9658 16.1257 17.3634 15.8651 17.9265 15.6468C18.3491 15.4812 18.9846 15.2878 20.1554 15.232C21.4212 15.1762 21.7992 15.1619 25.006 15.1619C28.2158 15.1619 28.5909 15.1762 29.8566 15.232C31.0274 15.2878 31.6659 15.4812 32.0884 15.6468C32.6486 15.8651 33.0492 16.1257 33.467 16.5452C33.8895 16.9653 34.15 17.3635 34.3684 17.9231C34.5309 18.3492 34.7268 18.9848 34.7802 20.1555C34.8389 21.4213 34.8532 21.7993 34.8532 25.0091C34.8532 28.2124 34.8389 28.5933 34.7802 29.8591ZM36.942 20.057C36.8833 18.7776 36.6815 17.9035 36.3818 17.1422C36.0768 16.3523 35.6679 15.683 34.9986 15.0136C34.3322 14.3472 33.6628 13.9383 32.8729 13.6298C32.1086 13.333 31.2375 13.1289 29.9575 13.0731C28.6775 13.0114 28.2686 13.0001 25.006 13.0001C21.7464 13.0001 21.3346 13.0114 20.0546 13.0731C18.7775 13.1289 17.907 13.333 17.1391 13.6298C16.3522 13.9383 15.6828 14.3472 15.0164 15.0136C14.3471 15.683 13.9382 16.3523 13.6302 17.1422C13.3335 17.9035 13.1317 18.7776 13.07 20.057C13.0142 21.337 13 21.7465 13 25.0091C13 28.2688 13.0142 28.6776 13.07 29.9576C13.1317 31.2347 13.3335 32.1081 13.6302 32.8731C13.9382 33.6599 14.3471 34.3323 15.0164 34.9987C15.6828 35.6651 16.3522 36.0769 17.1391 36.3849C17.907 36.6816 18.7775 36.8834 20.0546 36.9421C21.3346 37.0009 21.7464 37.0151 25.006 37.0151C28.2686 37.0151 28.6775 37.0009 29.9575 36.9421C31.2375 36.8834 32.1086 36.6816 32.8729 36.3849C33.6628 36.0769 34.3322 35.6651 34.9986 34.9987C35.6679 34.3323 36.0768 33.6599 36.3818 32.8731C36.6815 32.1081 36.8833 31.2347 36.942 29.9576C37.0008 28.6776 37.015 28.2688 37.015 25.0091C37.015 21.7465 37.0008 21.337 36.942 20.057Z" fill="url(#paint1_linear_1433_2356)"/>
<path d="M25.0076 29.0081C22.7983 29.0081 21.0056 27.2183 21.0056 25.009C21.0056 22.7961 22.7983 21.0041 25.0076 21.0041C27.2175 21.0041 29.0125 22.7961 29.0125 25.009C29.0125 27.2183 27.2175 29.0081 25.0076 29.0081ZM25.0076 18.8393C21.6019 18.8393 18.8438 21.6034 18.8438 25.009C18.8438 28.4117 21.6019 31.1729 25.0076 31.1729C28.4132 31.1729 31.1743 28.4117 31.1743 25.009C31.1743 21.6034 28.4132 18.8393 25.0076 18.8393Z" fill="url(#paint2_linear_1433_2356)"/>
</g>
<defs>
<linearGradient id="paint0_linear_1433_2356" x1="13.2152" y1="36.7668" x2="35.0134" y2="14.9688" gradientUnits="userSpaceOnUse">
<stop stop-color="#FFD521"/>
<stop offset="0.05" stop-color="#FFD521"/>
<stop offset="0.501119" stop-color="#F50000"/>
<stop offset="0.95" stop-color="#B900B4"/>
<stop offset="0.950079" stop-color="#B900B4"/>
<stop offset="1" stop-color="#B900B4"/>
</linearGradient>
<linearGradient id="paint1_linear_1433_2356" x1="13.2166" y1="36.7967" x2="35.0327" y2="14.9807" gradientUnits="userSpaceOnUse">
<stop stop-color="#FFD521"/>
<stop offset="0.05" stop-color="#FFD521"/>
<stop offset="0.501119" stop-color="#F50000"/>
<stop offset="0.95" stop-color="#B900B4"/>
<stop offset="0.950079" stop-color="#B900B4"/>
<stop offset="1" stop-color="#B900B4"/>
</linearGradient>
<linearGradient id="paint2_linear_1433_2356" x1="13.2238" y1="36.7972" x2="35.0346" y2="14.9864" gradientUnits="userSpaceOnUse">
<stop stop-color="#FFD521"/>
<stop offset="0.05" stop-color="#FFD521"/>
<stop offset="0.501119" stop-color="#F50000"/>
<stop offset="0.95" stop-color="#B900B4"/>
<stop offset="0.950079" stop-color="#B900B4"/>
<stop offset="1" stop-color="#B900B4"/>
</linearGradient>
<clipPath id="clip0_1433_2356">
<rect width="24" height="24" fill="white" transform="translate(13 13)"/>
</clipPath>
</defs>
</svg>
