<svg width="30" height="44" viewBox="0 0 30 44" fill="none" xmlns="http://www.w3.org/2000/svg">
<path fill-rule="evenodd" clip-rule="evenodd" d="M7.66732 27.0985C6.39682 27.0233 5.29315 26.2075 4.89898 25.0268C3.90898 22.0587 4.24815 22.5188 1.62465 20.6965C0.799651 20.1245 0.333984 19.2152 0.333984 18.2747C0.333984 17.963 0.383484 17.6495 0.489818 17.3415C1.50365 14.388 1.50548 14.9582 0.489818 11.9882C0.383484 11.6838 0.333984 11.3685 0.333984 11.0587C0.333984 10.1163 0.799651 9.20883 1.62465 8.635C4.24632 6.81633 3.90715 7.2765 4.89898 4.30283C5.31148 3.06533 6.50865 2.22933 7.85982 2.22933H7.86898C11.1048 2.24033 10.5291 2.42917 13.1655 0.573833C13.7118 0.190667 14.3553 0 15.0006 0C15.646 0 16.2895 0.190667 16.8358 0.573833C19.4538 2.4145 18.8891 2.24033 22.1323 2.22933H22.1415C23.4926 2.22933 24.6898 3.06533 25.1041 4.30283C26.0941 7.271 25.7476 6.81083 28.3785 8.635C29.2016 9.207 29.6673 10.1163 29.6673 11.0568C29.6673 11.3667 29.6196 11.6838 29.5115 11.9882C28.4995 14.9435 28.4958 14.3752 29.5115 17.3415C29.6196 17.6495 29.6673 17.9648 29.6673 18.2747C29.6673 19.2152 29.2016 20.1245 28.3785 20.6965C25.7476 22.5225 26.0941 22.0623 25.1041 25.0268C24.7081 26.2057 23.6063 27.0233 22.334 27.0985V44L15.0776 38.5L7.66732 44V27.0985ZM25.4763 14.6667C25.4763 8.8825 20.7885 4.191 15.0006 4.191C9.21648 4.191 4.52498 8.8825 4.52498 14.6667C4.52498 20.4508 9.21648 25.1423 15.0006 25.1423C20.7885 25.1423 25.4763 20.4508 25.4763 14.6667ZM15.0006 7.33333C10.9581 7.33333 7.66732 10.6223 7.66732 14.6667C7.66732 18.711 10.9581 22 15.0006 22C19.045 22 22.334 18.711 22.334 14.6667C22.334 10.6223 19.045 7.33333 15.0006 7.33333Z" fill="#E41F17"/>
</svg>
