<svg width="44" height="44" viewBox="0 0 44 44" fill="none" xmlns="http://www.w3.org/2000/svg">
<path d="M27.4432 13.8362L27.5 14.1863C27.5 14.5402 27.324 14.8812 27.016 15.0957C26.0297 15.7777 26.1598 15.6053 25.7877 16.7182C25.6337 17.182 25.1827 17.4955 24.6785 17.4955H24.6748C23.4575 17.4918 23.6683 17.4258 22.6893 18.1152C22.484 18.2618 22.242 18.3333 22 18.3333C21.758 18.3333 21.516 18.2618 21.3107 18.117C20.3317 17.4277 20.5425 17.4937 19.3252 17.4973H19.3215C18.8173 17.4973 18.3663 17.1838 18.2123 16.72C17.8383 15.6072 17.9685 15.7777 16.9858 15.0957C16.676 14.8812 16.5 14.5402 16.5 14.1863L16.5568 13.838C16.9363 12.7307 16.9382 12.9433 16.5568 11.8323L16.5 11.4822C16.5 11.1283 16.676 10.7873 16.9858 10.571C17.9685 9.889 17.8383 10.0632 18.2123 8.9485C18.3663 8.48467 18.8173 8.17117 19.3215 8.17117H19.3252C20.5388 8.17483 20.3225 8.24633 21.3107 7.5515C21.516 7.40483 21.758 7.33333 22 7.33333C22.242 7.33333 22.484 7.40483 22.6893 7.54967C23.6683 8.239 23.4575 8.173 24.6748 8.16933H24.6785C25.1827 8.16933 25.6337 8.48283 25.7877 8.94667C26.1598 10.0595 26.0297 9.88717 27.016 10.5692C27.324 10.7855 27.5 11.1265 27.5 11.4803L27.4432 11.8305C27.0637 12.9378 27.0618 12.7252 27.4432 13.8362ZM24.75 11.6398L23.8975 10.7892L21.3125 13.4402L20.1025 12.2907L19.25 13.1413L21.3125 15.1415L24.75 11.6398ZM29.3333 20.1667H14.6667V22H29.3333V20.1667ZM27.5 23.8333H16.5V25.6667H27.5V23.8333ZM29.3333 27.5H14.6667V29.3333H29.3333V27.5ZM15.0865 34.8333C13.6748 41.173 9.16667 41.25 9.16667 37.3542V9.24367C9.16667 6.79983 9.053 4.86933 7.33333 3.66667H31.1667C33.649 3.66667 34.8333 4.8125 34.8333 7.33333V31.1667H38.5V7.33333C38.5 3.62817 36.9527 0 31.1667 0H9.16667C2.761 0 0 5.32767 0 9.16667H5.5V38.5C5.5 41.5378 7.96217 44 11 44H36.6667C41.5947 43.0265 43.7708 38.6137 44 34.8333H15.0865Z" fill="#E41F17"/>
</svg>
