<svg width="44" height="44" viewBox="0 0 44 44" fill="none" xmlns="http://www.w3.org/2000/svg">
<path d="M39.2443 17.523C37.026 17.4295 33.9827 17.0133 31.9532 16.159C33.4363 10.1402 34.2503 0 27.9272 0C24.5153 0 23.617 3.058 22.7333 6.10317C19.8953 15.8858 15.499 18.5992 11 19.6717V18.3333H0V40.3333H11V38.676C15.3597 39.094 18.5515 40.26 22.3098 41.877C24.6143 42.8688 27.907 44 32.0925 44C36.7455 44 39.9667 42.1722 41.2757 37.2423C42.1923 33.8012 44 23.9507 44 22.1173C44 19.096 41.8587 17.633 39.2443 17.523ZM7.33333 36.6667H3.66667V22H7.33333V36.6667ZM36.476 26.4312C36.476 26.4312 36.8445 26.4495 38.4358 26.3817C40.4195 26.2973 40.3627 29.0748 38.4432 29.2472L35.2147 29.4287C33.869 29.601 34.012 31.6342 35.4732 31.5773C35.4732 31.5773 36.7308 31.5462 37.5687 31.5022C39.5267 31.3995 39.4313 34.122 37.642 34.3457C36.8647 34.4428 34.4428 34.5565 34.4428 34.5565C32.956 34.6885 33.1485 36.8207 34.6427 36.6483L36.0562 36.5915C37.5632 36.4558 37.895 38.104 35.5208 39.6367C32.648 41.2518 26.9317 39.8768 23.7582 38.511C19.6533 36.7418 15.6218 34.9653 11 34.8333V23.8333C16.984 22.4602 22.6013 19.701 26.2552 7.12617C27.9015 1.4575 29.3333 3.586 29.3333 8.1785C29.3333 11.9753 28.435 15.1195 27.6448 18.3223C29.59 19.3178 33.825 20.8927 38.8648 21.175C40.799 21.2832 40.7422 23.8425 38.7713 24.079L36.2157 24.3852C36.2157 24.3852 35.101 26.422 36.476 26.4312Z" fill="#E41F17"/>
</svg>
