<svg width="44" height="44" viewBox="0 0 44 44" fill="none" xmlns="http://www.w3.org/2000/svg">
<path d="M22 3.66667C32.109 3.66667 40.3333 11.891 40.3333 22C40.3333 32.109 32.109 40.3333 22 40.3333C11.891 40.3333 3.66667 32.109 3.66667 22C3.66667 11.891 11.891 3.66667 22 3.66667ZM22 0C9.8505 0 0 9.8505 0 22C0 34.1495 9.8505 44 22 44C34.1495 44 44 34.1495 44 22C44 9.8505 34.1495 0 22 0ZM32.0962 25.5585C29.3242 27.7493 26.2772 29.0987 22.0018 29.0987C17.7228 29.0987 14.6758 27.7493 11.9038 25.5585L11 26.4623C13.0662 29.6157 16.8667 33 22.0018 33C27.1352 33 30.9338 29.6157 33 26.4623L32.0962 25.5585ZM15.5833 14.6667C14.0653 14.6667 12.8333 15.8968 12.8333 17.4167C12.8333 18.9365 14.0653 20.1667 15.5833 20.1667C17.1013 20.1667 18.3333 18.9365 18.3333 17.4167C18.3333 15.8968 17.1013 14.6667 15.5833 14.6667ZM28.4167 14.6667C26.8987 14.6667 25.6667 15.8968 25.6667 17.4167C25.6667 18.9365 26.8987 20.1667 28.4167 20.1667C29.9347 20.1667 31.1667 18.9365 31.1667 17.4167C31.1667 15.8968 29.9347 14.6667 28.4167 14.6667Z" fill="#E41F17"/>
</svg>
