<svg width="44" height="44" viewBox="0 0 44 44" fill="none" xmlns="http://www.w3.org/2000/svg">
<path d="M29.1683 24.4567L34.001 17.0757L33.1687 16.3313L26.4348 22.0128C25.1973 21.7598 23.8645 22.1375 22.9625 23.1458C21.6132 24.6547 21.7433 26.9738 23.254 28.3232C24.7647 29.6725 27.082 29.5423 28.4313 28.0317C29.3333 27.0233 29.5588 25.6575 29.1683 24.4567ZM22 4.939V0H29.3333V4.939C26.6952 4.4935 24.5813 4.50267 22 4.939ZM38.2268 8.723L40.8063 6.1435L43.3987 8.73583L40.9768 11.1577C40.1298 10.2703 39.2095 9.45817 38.2268 8.723ZM3.66667 16.5H18.3333V20.1667H3.66667V16.5ZM0 23.8333H14.6667V27.5H0V23.8333ZM5.5 31.1667H18.3333V34.8333H5.5V31.1667ZM44 25.6667C44 35.7922 35.7922 44 25.6667 44C20.5517 44 15.95 41.8825 12.6298 38.5H18.6432C20.7295 39.6568 23.1147 40.3333 25.6667 40.3333C33.7535 40.3333 40.3333 33.7535 40.3333 25.6667C40.3333 17.5798 33.7535 11 25.6667 11C23.1147 11 20.7295 11.6765 18.6432 12.8333H12.6298C15.95 9.45083 20.5517 7.33333 25.6667 7.33333C35.7922 7.33333 44 15.5412 44 25.6667Z" fill="#E41F17"/>
</svg>
