<svg width="38" height="44" viewBox="0 0 38 44" fill="none" xmlns="http://www.w3.org/2000/svg">
<path d="M28.2797 11H9.84735L0.666016 21.3125L18.9993 44L37.3327 21.4408L28.2797 11ZM11.0573 22L16.6288 35.233L5.93685 22H11.0573ZM24.9522 22L18.9993 36.1368L13.0465 22H24.9522ZM13.8788 20.1667L18.9993 15.0462L24.1199 20.1667H13.8788ZM26.9414 22H32.1535L21.3387 35.3082L26.9414 22ZM31.3743 20.1667H26.7122L21.2122 14.6667H26.6059L31.3743 20.1667ZM11.49 14.6667H16.7865L11.2865 20.1667H6.59502L11.49 14.6667ZM5.15768 10.7507L0.666016 6.259L3.25835 3.66667L7.59968 8.008L5.15768 10.7507ZM7.71885 35.8728L3.25835 40.3333L0.666016 37.741L5.40152 33.0055L7.71885 35.8728ZM17.166 7.33333V0H20.8327V7.33333H17.166ZM32.632 33.0385L37.3327 37.741L34.7403 40.3333L30.3073 35.9003L32.632 33.0385ZM30.4742 7.93283L34.7403 3.66667L37.3327 6.259L32.8814 10.7103L30.4742 7.93283Z" fill="#E41F17"/>
</svg>
